<svg width="42" height="68" viewBox="0 0 42 68" fill="none" xmlns="http://www.w3.org/2000/svg">
<g clip-path="url(#clip0_340_414)">
<path d="M20.9541 -0.0947266C24.2231 -0.0313877 27.5195 0.859483 29.4346 2.40234C30.9365 3.60178 31.7362 5.48794 31.8418 7.99023L31.8545 8.19434C31.8563 8.27133 31.8564 8.35505 31.8564 8.4375V24.1387H42.0996V62.0088C42.0996 65.3628 39.4186 68.0937 36.124 68.0938H5.87598C2.58142 68.0937 -0.0996094 65.3628 -0.0996094 62.0088V24.1387H10.1436V8.43066C10.1436 8.27874 10.1439 8.13598 10.1641 7.93945V7.83496C10.1641 7.78222 10.1645 7.68775 10.1846 7.58984C10.317 5.54801 11.113 3.78671 12.5439 2.40918C14.4082 0.605399 17.6858 -0.157987 20.9541 -0.0947266ZM1.47754 62.0156C1.47754 64.4918 3.45301 66.499 5.87598 66.499H36.124C38.547 66.499 40.5225 64.4918 40.5225 62.0156V25.7471H1.47754V62.0156ZM27.085 2.69922C27.2048 2.86129 27.3235 3.02862 27.4385 3.2041H27.4375C27.443 3.21147 27.4481 3.21716 27.4502 3.2207C27.4524 3.22449 27.4548 3.22803 27.4561 3.23047C27.4566 3.23149 27.4566 3.23265 27.457 3.2334C27.4673 3.24728 27.4788 3.26194 27.4873 3.27539C27.5032 3.30048 27.5219 3.33216 27.542 3.36621C27.5528 3.37924 27.5627 3.39094 27.5693 3.40137C27.574 3.40868 27.5787 3.41636 27.582 3.42188L27.5898 3.43555L27.5908 3.43652C27.7864 3.74912 27.9753 4.10453 28.1426 4.4873H28.1416C28.759 5.80059 29.1084 7.20857 29.1084 8.4375V24.1455H30.2861V8.4375C30.2861 8.31781 30.2855 8.2038 30.2725 8.08398L30.2715 8.07715V8.07617C30.2646 7.92152 30.2584 7.80223 30.2393 7.69824L30.2178 7.58008H30.2354C30.1125 6.1541 29.6609 4.99881 28.8975 4.1084L28.7461 3.93359V3.93262L28.624 3.81055C28.6226 3.80909 28.6219 3.80745 28.6211 3.80664L28.6201 3.80566L28.5166 3.7002L28.459 3.64258C28.4485 3.63318 28.4387 3.62426 28.4316 3.61816C28.4282 3.61518 28.4248 3.61295 28.4229 3.61133L28.4209 3.60938L28.415 3.60449L28.2979 3.49219V3.49121C27.9361 3.18894 27.5313 2.92581 27.085 2.69922ZM18.5039 4.50781C17.2075 4.52184 16.1234 4.5433 15.625 4.58496L15.624 4.58301C15.614 4.58493 15.6042 4.58499 15.5947 4.58594C14.9134 5.77713 14.5011 7.16595 14.4785 8.33691H14.4834V24.1455H27.5303V8.4375C27.5303 7.24598 27.1122 5.81143 26.4111 4.58594C26.4036 4.58578 26.3947 4.58496 26.3838 4.58496H26.376C25.5748 4.52227 23.2923 4.49414 21.0039 4.49414L18.5039 4.50781ZM14.9053 2.71289C14.4125 2.96456 13.9722 3.26507 13.5889 3.60547C13.3997 3.77733 13.252 3.93586 13.1104 4.10742L13.1094 4.1084C12.2589 5.118 11.7957 6.44068 11.7344 8.04883V8.05273C11.7209 8.21673 11.7207 8.31905 11.7207 8.4375V24.1455H12.8984V8.4375C12.8984 7.20118 13.241 5.79206 13.8662 4.47754C14.0331 4.12382 14.2274 3.76308 14.4424 3.40332C14.4779 3.33853 14.522 3.26362 14.5879 3.18164C14.6861 3.02258 14.7925 2.86578 14.9053 2.71289ZM22.9004 1.76465C21.5326 1.40468 20.0145 1.41813 18.7451 1.79785L18.7461 1.79883C18.2564 1.95103 17.8385 2.13669 17.5039 2.35449L17.5029 2.35352L17.3545 2.45801C17.2796 2.50997 17.2105 2.55948 17.1465 2.60938L16.9668 2.76367L16.8262 2.89551C17.7255 2.87751 19.3654 2.86426 21.0039 2.86426C22.6335 2.86426 24.2639 2.87767 25.1611 2.89551C25.0927 2.83318 25.02 2.77255 24.9443 2.71387L24.9424 2.71289C24.863 2.64829 24.836 2.61702 24.7871 2.58594L24.7822 2.58398L24.8408 2.50195L24.7822 2.58301C24.3533 2.27826 23.7975 2.024 23.1729 1.83984L22.9004 1.76465Z" fill="black" stroke="black" stroke-width="0.2"/>
</g>
<defs>
<clipPath id="clip0_340_414">
<rect width="42" height="68" fill="white"/>
</clipPath>
</defs>
</svg>
