<svg width="60" height="62" viewBox="0 0 60 62" fill="none" xmlns="http://www.w3.org/2000/svg">
<g clip-path="url(#clip0_340_422)">
<path d="M43.7324 -0.0996094C46.0399 -0.0996094 48.0922 1.23873 49.0273 3.33789L49.1143 3.54297L49.1172 3.5498L49.1191 3.55762L59.8672 49.0928C59.9243 49.3116 59.8664 49.5455 59.7373 49.7207C59.6034 49.9021 59.3782 50.0039 59.1631 50.0039H48.6572C48.3013 50.0039 48.0103 49.7598 47.9355 49.4238V49.4219L43.3867 26.9697V33.6445L46.3838 60.5928H46.3828C46.411 60.8043 46.3333 61.0004 46.209 61.1602C46.0738 61.3337 45.8642 61.417 45.6602 61.417H14.1436C13.9368 61.417 13.7298 61.3235 13.5967 61.1621C13.4696 61.0078 13.3919 60.8031 13.4199 60.5928L16.417 33.5713V26.9512L11.8516 49.4219V49.4238C11.777 49.7501 11.4871 50.0039 11.1299 50.0039H0.624023C0.408934 50.0038 0.183619 49.9021 0.0498047 49.7207C-0.0793256 49.5455 -0.137172 49.3116 -0.0800781 49.0928H-0.0791016L10.6602 3.64648L10.6641 3.63281C11.578 1.32743 13.6886 -0.0996094 16.0713 -0.0996094H43.7324ZM35.8701 59.9375H44.835L42.3633 37.8135H35.8701V59.9375ZM14.9521 59.9375H34.415V37.8135H17.4082L14.9521 59.9375ZM42.5859 18.9434C42.9571 18.8959 43.3024 19.1617 43.377 19.5254L49.2607 48.5566H58.251L47.7275 4.00977C47.0776 2.439 45.5128 1.37988 43.7324 1.37988H42.1191L29.6709 21.0732L35.8105 33.335L35.8125 33.3389C35.8573 33.4374 35.8867 33.5405 35.8867 33.6553V34.5195H42.0176L41.9316 33.7471L41.9307 33.7363H41.9316V19.6748C41.9317 19.2998 42.2045 18.9901 42.5859 18.9434ZM35.8867 36.3496H42.2188L42.1768 35.9834H35.8867V36.3496ZM17.5762 36.3496H34.4229V35.9834H17.6182L17.5762 36.3496ZM17.7637 33.6475L17.8633 33.6572L17.7773 34.5117H34.4062V33.8232L18.1797 1.36328H16.0547C14.2743 1.36333 12.6922 2.43063 12.0342 4.08301L1.55273 48.5244H10.5381L16.4189 19.5088C16.487 19.1383 16.8442 18.8993 17.2041 18.9268L17.209 18.9277C17.5804 18.9742 17.8643 19.2741 17.8643 19.6592V33.6572L17.7637 33.6475ZM28.9111 19.5264L40.3926 1.36328H19.8213L28.9111 19.5264Z" fill="black" stroke="black" stroke-width="0.2"/>
</g>
<defs>
<clipPath id="clip0_340_422">
<rect width="59.7618" height="61.3089" fill="white"/>
</clipPath>
</defs>
</svg>
