<svg width="59" height="51" viewBox="0 0 59 51" fill="none" xmlns="http://www.w3.org/2000/svg">
<path fill-rule="evenodd" clip-rule="evenodd" d="M2.03448 36.72H1.01724C0.466236 36.72 0 37.1875 0 37.74V43.86C0 44.4125 0.466236 44.88 1.01724 44.88H5.08621V49.98C5.08621 50.5325 5.55244 51 6.10345 51H9.15517C9.70618 51 10.1724 50.5325 10.1724 49.98V44.88H48.8276V49.98C48.8276 50.5325 49.2938 51 49.8448 51H52.8965C53.4476 51 53.9138 50.5325 53.9138 49.98V44.88H57.9828C58.5338 44.88 59 44.4125 59 43.86V37.74C59 37.1875 58.5338 36.72 57.9828 36.72H56.9655V30.6C56.9655 28.0075 55.7787 25.7125 53.9138 24.225V3.06C53.9138 2.2525 53.5747 1.4875 53.0237 0.8925C52.4727 0.2975 51.6674 0 50.8621 0H8.13793C7.33261 0 6.56968 0.34 5.97629 0.8925C5.3829 1.445 5.08621 2.2525 5.08621 3.06V24.225C3.22126 25.7125 2.03448 28.0075 2.03448 30.6V36.72ZM51.8793 44.88V48.96H50.8621V44.88H51.8793ZM8.13793 44.88V48.96H7.12069V44.88H8.13793ZM56.9655 38.76V42.84H2.03448V38.76H56.9655ZM54.931 30.6V36.72H4.06897V30.6C4.06897 27.2 6.78161 24.48 10.1724 24.48H48.8276C52.2184 24.48 54.931 27.2 54.931 30.6ZM47.3017 22.44H48.8276C49.9296 22.44 50.9468 22.6525 51.8793 23.035V3.06C51.8793 2.805 51.7945 2.55 51.5826 2.3375C51.3707 2.125 51.1164 2.04 50.8621 2.04H8.13793C7.88362 2.04 7.62931 2.1675 7.41739 2.3375C7.20546 2.55 7.12069 2.805 7.12069 3.06V23.035C8.05316 22.6525 9.0704 22.44 10.1724 22.44H11.6983V15.3C11.6983 14.7475 12.1645 14.28 12.7155 14.28H24.4138C24.9648 14.28 25.431 14.7475 25.431 15.3V22.44H33.569V15.3C33.569 14.7475 34.0352 14.28 34.5862 14.28H46.2845C46.8355 14.28 47.3017 14.7475 47.3017 15.3V22.44ZM23.3966 16.32V22.44H13.7328V16.32H23.3966ZM45.2672 16.32V22.44H35.6034V16.32H45.2672Z" fill="black"/>
</svg>
