<svg width="61" height="60" viewBox="0 0 61 60" fill="none" xmlns="http://www.w3.org/2000/svg">
<path d="M17.8789 45.1003C20.443 45.1004 22.738 45.69 24.3955 46.6638C26.0515 47.6368 27.0859 49.0037 27.0859 50.5574C27.0858 52.1108 26.0513 53.477 24.3955 54.45C22.738 55.4238 20.443 56.0144 17.8789 56.0144C15.3147 56.0144 13.0189 55.4238 11.3613 54.45C9.70571 53.4771 8.672 52.1107 8.67188 50.5574C8.67188 49.0039 9.70346 47.6368 11.3584 46.6638C13.015 45.6899 15.3107 45.1003 17.8789 45.1003ZM17.8789 46.5505C15.7611 46.5505 13.8117 47.016 12.3955 47.7537C10.9736 48.4943 10.1164 49.4926 10.1162 50.5486C10.1162 51.6048 10.9734 52.6037 12.3955 53.3445C13.8117 54.0822 15.7611 54.5476 17.8789 54.5476C19.9965 54.5476 21.9452 54.082 23.3613 53.3445C24.7835 52.6037 25.6406 51.6048 25.6406 50.5486C25.6404 49.4926 24.7833 48.4943 23.3613 47.7537C21.9452 47.0161 19.9965 46.5506 17.8789 46.5505Z" fill="black" stroke="black" stroke-width="0.2"/>
<mask id="path-2-outside-1_180_421" maskUnits="userSpaceOnUse" x="-0.800049" y="-0.800049" width="62" height="61" fill="black">
<rect fill="white" x="-0.800049" y="-0.800049" width="62" height="61"/>
<path d="M59.5779 57.8995H54.889V38.2355C54.889 36.8004 53.7167 35.6348 52.2733 35.6348H47.1298V11.7288C47.1298 11.5623 47.066 11.4037 46.9464 11.2927L42.7917 7.16164V3.1892C42.7917 1.53996 41.444 0.199951 39.7853 0.199951C38.1266 0.199951 36.7789 1.53996 36.7789 3.1892V7.16957C35.2079 8.73952 34.259 9.67515 32.6242 11.2927C32.5046 11.4116 32.4408 11.5702 32.4408 11.7288V35.6348H27.3929V22.1872L29.243 18.5794C29.2829 18.4922 29.3148 18.3971 29.3148 18.294V8.1052C29.3148 7.38365 28.7247 6.79691 27.999 6.79691H21.5556C20.8299 6.79691 20.2398 7.38365 20.2398 8.1052V16.9778C20.2398 17.6993 20.8299 18.2861 21.5556 18.2861H25.0724L23.613 21.1247C23.5732 21.2119 23.5413 21.307 23.5413 21.4101V35.6269H15.511C14.0676 35.6269 12.8953 36.7924 12.8953 38.2276V42.2635H5.80601C4.15529 42.2635 2.80761 43.6035 2.80761 45.2527V56.1472C2.80761 56.7974 3.02292 57.4 3.38177 57.8916H0.821961C0.479058 57.8916 0.199951 58.1691 0.199951 58.5101C0.199951 58.851 0.479058 59.1285 0.821961 59.1285H59.5779C59.9208 59.1285 60.2 58.851 60.2 58.5101C60.2 58.1691 59.9208 57.8916 59.5779 57.8916V57.8995ZM38.0309 3.18127C38.0309 2.22185 38.8204 1.43688 39.7853 1.43688C40.7502 1.43688 41.5397 2.22185 41.5397 3.18127V6.79691H38.0229V3.18127H38.0309ZM33.7007 11.9825C35.2239 10.468 36.1489 9.54828 37.672 8.03384H41.9145L45.8858 11.9825V35.6269H33.7007V11.9825ZM21.4918 16.9857V14.9321H23.7167C24.0596 14.9321 24.3387 14.6546 24.3387 14.3136C24.3387 13.9727 24.0596 13.6952 23.7167 13.6952H21.4918V10.5949H23.7167C24.0596 10.5949 24.3387 10.3174 24.3387 9.97645C24.3387 9.6355 24.0596 9.35798 23.7167 9.35798H21.4918V8.11313C21.4918 8.07348 21.5237 8.04176 21.5636 8.04176H25.4791V17.0571H21.5636C21.5237 17.0571 21.4918 17.0254 21.4918 16.9857ZM24.8012 21.5687L26.6513 17.961V17.9451C26.6912 17.8658 26.7151 17.7786 26.7151 17.6835V8.04969H28.007C28.007 8.04969 28.0787 8.08141 28.0787 8.12105V18.1592L26.2287 21.7669C26.1888 21.8541 26.1569 21.9493 26.1569 22.0524V35.6507H24.8012V21.5846V21.5687ZM24.9527 57.8995H5.80601C4.8411 57.8995 4.05163 57.1225 4.05163 56.1551V45.2606C4.05163 44.2933 4.8411 43.5083 5.80601 43.5083H29.9368C30.9097 43.5083 31.6992 44.2933 31.6992 45.2606V56.1551C31.6992 57.1145 30.9097 57.8995 29.9368 57.8995H24.9527ZM32.361 57.8995C32.7199 57.4079 32.9432 56.8053 32.9432 56.1551V45.2606C32.9432 43.6114 31.5955 42.2714 29.9368 42.2714H14.1553V38.2355C14.1553 37.4823 14.7693 36.8717 15.5269 36.8717H52.2653C53.0229 36.8717 53.637 37.4823 53.637 38.2355V57.8995H32.361Z"/>
</mask>
<path d="M59.5779 57.8995H54.889V38.2355C54.889 36.8004 53.7167 35.6348 52.2733 35.6348H47.1298V11.7288C47.1298 11.5623 47.066 11.4037 46.9464 11.2927L42.7917 7.16164V3.1892C42.7917 1.53996 41.444 0.199951 39.7853 0.199951C38.1266 0.199951 36.7789 1.53996 36.7789 3.1892V7.16957C35.2079 8.73952 34.259 9.67515 32.6242 11.2927C32.5046 11.4116 32.4408 11.5702 32.4408 11.7288V35.6348H27.3929V22.1872L29.243 18.5794C29.2829 18.4922 29.3148 18.3971 29.3148 18.294V8.1052C29.3148 7.38365 28.7247 6.79691 27.999 6.79691H21.5556C20.8299 6.79691 20.2398 7.38365 20.2398 8.1052V16.9778C20.2398 17.6993 20.8299 18.2861 21.5556 18.2861H25.0724L23.613 21.1247C23.5732 21.2119 23.5413 21.307 23.5413 21.4101V35.6269H15.511C14.0676 35.6269 12.8953 36.7924 12.8953 38.2276V42.2635H5.80601C4.15529 42.2635 2.80761 43.6035 2.80761 45.2527V56.1472C2.80761 56.7974 3.02292 57.4 3.38177 57.8916H0.821961C0.479058 57.8916 0.199951 58.1691 0.199951 58.5101C0.199951 58.851 0.479058 59.1285 0.821961 59.1285H59.5779C59.9208 59.1285 60.2 58.851 60.2 58.5101C60.2 58.1691 59.9208 57.8916 59.5779 57.8916V57.8995ZM38.0309 3.18127C38.0309 2.22185 38.8204 1.43688 39.7853 1.43688C40.7502 1.43688 41.5397 2.22185 41.5397 3.18127V6.79691H38.0229V3.18127H38.0309ZM33.7007 11.9825C35.2239 10.468 36.1489 9.54828 37.672 8.03384H41.9145L45.8858 11.9825V35.6269H33.7007V11.9825ZM21.4918 16.9857V14.9321H23.7167C24.0596 14.9321 24.3387 14.6546 24.3387 14.3136C24.3387 13.9727 24.0596 13.6952 23.7167 13.6952H21.4918V10.5949H23.7167C24.0596 10.5949 24.3387 10.3174 24.3387 9.97645C24.3387 9.6355 24.0596 9.35798 23.7167 9.35798H21.4918V8.11313C21.4918 8.07348 21.5237 8.04176 21.5636 8.04176H25.4791V17.0571H21.5636C21.5237 17.0571 21.4918 17.0254 21.4918 16.9857ZM24.8012 21.5687L26.6513 17.961V17.9451C26.6912 17.8658 26.7151 17.7786 26.7151 17.6835V8.04969H28.007C28.007 8.04969 28.0787 8.08141 28.0787 8.12105V18.1592L26.2287 21.7669C26.1888 21.8541 26.1569 21.9493 26.1569 22.0524V35.6507H24.8012V21.5846V21.5687ZM24.9527 57.8995H5.80601C4.8411 57.8995 4.05163 57.1225 4.05163 56.1551V45.2606C4.05163 44.2933 4.8411 43.5083 5.80601 43.5083H29.9368C30.9097 43.5083 31.6992 44.2933 31.6992 45.2606V56.1551C31.6992 57.1145 30.9097 57.8995 29.9368 57.8995H24.9527ZM32.361 57.8995C32.7199 57.4079 32.9432 56.8053 32.9432 56.1551V45.2606C32.9432 43.6114 31.5955 42.2714 29.9368 42.2714H14.1553V38.2355C14.1553 37.4823 14.7693 36.8717 15.5269 36.8717H52.2653C53.0229 36.8717 53.637 37.4823 53.637 38.2355V57.8995H32.361Z" fill="black"/>
<path d="M59.5779 57.8995H54.889V38.2355C54.889 36.8004 53.7167 35.6348 52.2733 35.6348H47.1298V11.7288C47.1298 11.5623 47.066 11.4037 46.9464 11.2927L42.7917 7.16164V3.1892C42.7917 1.53996 41.444 0.199951 39.7853 0.199951C38.1266 0.199951 36.7789 1.53996 36.7789 3.1892V7.16957C35.2079 8.73952 34.259 9.67515 32.6242 11.2927C32.5046 11.4116 32.4408 11.5702 32.4408 11.7288V35.6348H27.3929V22.1872L29.243 18.5794C29.2829 18.4922 29.3148 18.3971 29.3148 18.294V8.1052C29.3148 7.38365 28.7247 6.79691 27.999 6.79691H21.5556C20.8299 6.79691 20.2398 7.38365 20.2398 8.1052V16.9778C20.2398 17.6993 20.8299 18.2861 21.5556 18.2861H25.0724L23.613 21.1247C23.5732 21.2119 23.5413 21.307 23.5413 21.4101V35.6269H15.511C14.0676 35.6269 12.8953 36.7924 12.8953 38.2276V42.2635H5.80601C4.15529 42.2635 2.80761 43.6035 2.80761 45.2527V56.1472C2.80761 56.7974 3.02292 57.4 3.38177 57.8916H0.821961C0.479058 57.8916 0.199951 58.1691 0.199951 58.5101C0.199951 58.851 0.479058 59.1285 0.821961 59.1285H59.5779C59.9208 59.1285 60.2 58.851 60.2 58.5101C60.2 58.1691 59.9208 57.8916 59.5779 57.8916V57.8995ZM38.0309 3.18127C38.0309 2.22185 38.8204 1.43688 39.7853 1.43688C40.7502 1.43688 41.5397 2.22185 41.5397 3.18127V6.79691H38.0229V3.18127H38.0309ZM33.7007 11.9825C35.2239 10.468 36.1489 9.54828 37.672 8.03384H41.9145L45.8858 11.9825V35.6269H33.7007V11.9825ZM21.4918 16.9857V14.9321H23.7167C24.0596 14.9321 24.3387 14.6546 24.3387 14.3136C24.3387 13.9727 24.0596 13.6952 23.7167 13.6952H21.4918V10.5949H23.7167C24.0596 10.5949 24.3387 10.3174 24.3387 9.97645C24.3387 9.6355 24.0596 9.35798 23.7167 9.35798H21.4918V8.11313C21.4918 8.07348 21.5237 8.04176 21.5636 8.04176H25.4791V17.0571H21.5636C21.5237 17.0571 21.4918 17.0254 21.4918 16.9857ZM24.8012 21.5687L26.6513 17.961V17.9451C26.6912 17.8658 26.7151 17.7786 26.7151 17.6835V8.04969H28.007C28.007 8.04969 28.0787 8.08141 28.0787 8.12105V18.1592L26.2287 21.7669C26.1888 21.8541 26.1569 21.9493 26.1569 22.0524V35.6507H24.8012V21.5846V21.5687ZM24.9527 57.8995H5.80601C4.8411 57.8995 4.05163 57.1225 4.05163 56.1551V45.2606C4.05163 44.2933 4.8411 43.5083 5.80601 43.5083H29.9368C30.9097 43.5083 31.6992 44.2933 31.6992 45.2606V56.1551C31.6992 57.1145 30.9097 57.8995 29.9368 57.8995H24.9527ZM32.361 57.8995C32.7199 57.4079 32.9432 56.8053 32.9432 56.1551V45.2606C32.9432 43.6114 31.5955 42.2714 29.9368 42.2714H14.1553V38.2355C14.1553 37.4823 14.7693 36.8717 15.5269 36.8717H52.2653C53.0229 36.8717 53.637 37.4823 53.637 38.2355V57.8995H32.361Z" stroke="black" stroke-width="0.4" mask="url(#path-2-outside-1_180_421)"/>
<path d="M39.843 17.2432C42.8527 17.2433 45.3 19.6905 45.3 22.7002C45.2999 25.7097 42.8526 28.1571 39.843 28.1572C36.8333 28.1572 34.3861 25.7098 34.386 22.7002C34.386 19.6904 36.8332 17.2432 39.843 17.2432ZM39.843 18.709C37.6418 18.709 35.8518 20.4989 35.8518 22.7002C35.852 24.9013 37.6418 26.6904 39.843 26.6904C42.0441 26.6903 43.8331 24.9012 43.8333 22.7002C43.8333 20.499 42.0442 18.7091 39.843 18.709Z" fill="black" stroke="black" stroke-width="0.2"/>
<path d="M44.5747 11.8862C44.9596 11.8862 45.3003 12.1575 45.3003 12.522C45.3 12.8863 44.9594 13.1577 44.5747 13.1577H36.1821C35.7975 13.1576 35.4578 12.8862 35.4575 12.522C35.4575 12.1575 35.7974 11.8863 36.1821 11.8862H44.5747Z" fill="black" stroke="black" stroke-width="0.2"/>
</svg>
