<svg width="68" height="43" viewBox="0 0 68 43" fill="none" xmlns="http://www.w3.org/2000/svg">
<path d="M66.9371 0H1.06289C0.477046 0 0 0.48267 0 1.07542V5.37712C0 5.96987 0.477046 6.45254 1.06289 6.45254H4.25157V41.933C4.25157 42.5258 4.72862 43.0085 5.31446 43.0085H9.56603C10.1519 43.0085 10.6289 42.5258 10.6289 41.933V38.7068H27.6268V41.933C27.6268 42.5258 28.1039 43.0085 28.6897 43.0085H32.9413C33.5271 43.0085 34.0042 42.5258 34.0042 41.933V17.2068H57.3794V41.933C57.3794 42.5258 57.8565 43.0085 58.4423 43.0085H62.6939C63.2798 43.0085 63.7568 42.5258 63.7568 41.933V6.45254H66.9455C67.5313 6.45254 68.0084 5.96987 68.0084 5.37712V1.07542C68.0084 0.48267 67.5313 0 66.9455 0H66.9371ZM8.50314 40.8492H6.37735V6.45254H8.50314V40.8492ZM27.6268 6.45254V15.0559H10.6289V6.45254H27.6268ZM10.6289 17.1983H27.6268V25.8017H10.6289V17.1983ZM10.6289 36.5475V27.9441H27.6268V36.5475H10.6289ZM31.8784 40.8492H29.7526V6.45254H31.8784V40.8492ZM34.0042 15.0475V6.45254H57.3794V15.0559H34.0042V15.0475ZM61.6226 40.8492H59.4969V6.45254H61.6226V40.8492ZM65.8742 4.30169H2.12578V2.15085H65.8742V4.30169ZM48.8763 10.7542C48.8763 11.347 48.3993 11.8297 47.8134 11.8297H43.5618C42.976 11.8297 42.499 11.347 42.499 10.7542C42.499 10.1615 42.976 9.67881 43.5618 9.67881H47.8134C48.3993 9.67881 48.8763 10.1615 48.8763 10.7542ZM15.9434 10.7542C15.9434 10.1615 16.4204 9.67881 17.0063 9.67881H21.2578C21.8437 9.67881 22.3207 10.1615 22.3207 10.7542C22.3207 11.347 21.8437 11.8297 21.2578 11.8297H17.0063C16.4204 11.8297 15.9434 11.347 15.9434 10.7542ZM22.3124 21.5C22.3124 22.0928 21.8353 22.5754 21.2495 22.5754H16.9979C16.4121 22.5754 15.935 22.0928 15.935 21.5C15.935 20.9072 16.4121 20.4246 16.9979 20.4246H21.2495C21.8353 20.4246 22.3124 20.9072 22.3124 21.5ZM22.3124 32.2542C22.3124 32.847 21.8353 33.3297 21.2495 33.3297H16.9979C16.4121 33.3297 15.935 32.847 15.935 32.2542C15.935 31.6615 16.4121 31.1788 16.9979 31.1788H21.2495C21.8353 31.1788 22.3124 31.6615 22.3124 32.2542Z" fill="black"/>
</svg>
