<svg width="14" height="14" viewBox="0 0 14 14" fill="none" xmlns="http://www.w3.org/2000/svg">
<path d="M13.5833 6.91667C13.5833 10.5986 10.5986 13.5833 6.91667 13.5833M13.5833 6.91667C13.5833 3.23477 10.5986 0.25 6.91667 0.25M13.5833 6.91667H0.25M6.91667 13.5833C3.23477 13.5833 0.25 10.5986 0.25 6.91667M6.91667 13.5833C5.20482 11.7859 4.25 9.39884 4.25 6.91667C4.25 4.43449 5.20482 2.04744 6.91667 0.25M6.91667 13.5833C8.62851 11.7859 9.58333 9.39884 9.58333 6.91667C9.58333 4.43449 8.62851 2.04744 6.91667 0.25M0.25 6.91667C0.25 3.23477 3.23477 0.25 6.91667 0.25" stroke="white" stroke-width="0.5" stroke-linecap="round" stroke-linejoin="round"/>
</svg>
