<svg width="14" height="17" viewBox="0 0 14 17" fill="none" xmlns="http://www.w3.org/2000/svg">
<path d="M13.1999 6.80002C13.1999 10.7944 8.7687 14.9544 7.2807 16.2392C7.14208 16.3435 6.97334 16.3998 6.7999 16.3998C6.62646 16.3998 6.45772 16.3435 6.3191 16.2392C4.8311 14.9544 0.399902 10.7944 0.399902 6.80002C0.399902 5.10264 1.07419 3.47477 2.27442 2.27454C3.47465 1.07431 5.10252 0.400024 6.7999 0.400024C8.49729 0.400024 10.1252 1.07431 11.3254 2.27454C12.5256 3.47477 13.1999 5.10264 13.1999 6.80002Z" stroke="black" stroke-width="0.8" stroke-linecap="round" stroke-linejoin="round"/>
<path d="M6.7999 9.20002C8.12539 9.20002 9.1999 8.12551 9.1999 6.80002C9.1999 5.47454 8.12539 4.40002 6.7999 4.40002C5.47442 4.40002 4.3999 5.47454 4.3999 6.80002C4.3999 8.12551 5.47442 9.20002 6.7999 9.20002Z" stroke="black" stroke-width="0.8" stroke-linecap="round" stroke-linejoin="round"/>
</svg>
