<svg width="63" height="65" viewBox="0 0 63 65" fill="none" xmlns="http://www.w3.org/2000/svg">
<path d="M62.2242 22.6956H57.8561V8.53977C57.8561 2.71798 51.9027 0 47.8803 0C47.4503 0 47.0961 0.351537 47.0961 0.797388V2.76085H0.784232C0.354169 2.76085 0 3.11239 0 3.55824V61.4503C0 61.8876 0.345737 62.2477 0.784232 62.2477H47.0961V64.2112C47.0961 64.6485 47.4418 65.0086 47.8803 65.0086C51.9027 65.0086 57.8561 62.2992 57.8561 56.4688V42.1673H62.2242C62.6543 42.1673 63.0084 41.8157 63.0084 41.3699V23.4929C63.0084 23.0557 62.6627 22.6956 62.2242 22.6956ZM1.56003 60.6529V4.34705H47.0961V60.6529H1.56003ZM56.2876 56.4602C56.2876 60.8502 51.987 63.0708 48.6561 63.3709V1.6205C51.987 1.92917 56.2876 4.14985 56.2876 8.5312V56.4517V56.4602ZM61.44 40.5811H57.8477V24.2903H61.44V40.5811ZM41.6992 9.03707H6.9569C6.52684 9.03707 6.17267 9.3886 6.17267 9.83445V55.1741C6.17267 55.6114 6.5184 55.9715 6.9569 55.9715H41.6992C42.1293 55.9715 42.4835 55.62 42.4835 55.1741V9.83445C42.4835 9.39718 42.1377 9.03707 41.6992 9.03707ZM14.8498 18.1342H17.3206V26.4681H14.8498V18.1342ZM17.3121 16.5479H14.8414V14.1472H17.3121V16.5479ZM19.4793 28.0629C20.2214 28.0629 20.8201 28.6717 20.8201 29.4262V38.3432H17.7844V30.7209C17.7844 30.2836 17.4386 29.9235 17.0001 29.9235H11.3419V29.4176C11.3419 28.6631 11.9406 28.0543 12.6826 28.0543H19.4709L19.4793 28.0629ZM28.5275 22.6355V21.1094H35.0375V22.6355H28.5275ZM32.5414 24.2217V27.9429H31.0404V24.2217H32.5414ZM37.3059 29.5291V35.3937H26.2676V29.5291H37.3059ZM31.1248 48.5121H37.3143V54.3767H29.4888L31.1332 48.5121H31.1248ZM26.276 36.9799H37.3143V46.9173H31.5717L33.6883 39.3464C33.7557 39.1063 33.7051 38.8491 33.5618 38.6519C33.41 38.4547 33.1823 38.3347 32.9378 38.3347H26.276V36.9799ZM31.9006 39.9294L27.8613 54.3767H20.7948L16.7556 39.9294H31.9006ZM11.3419 31.5183H16.2159V38.3432H15.7184C15.4738 38.3432 15.2462 38.4633 15.0944 38.6605C14.9426 38.8577 14.9004 39.1149 14.9679 39.355L16.2159 43.8306V50.9214H11.3419V31.5097V31.5183ZM11.3419 52.5076H17.0001C17.4302 52.5076 17.7844 52.156 17.7844 51.7102V49.4123L19.1673 54.3767H11.3419V52.5076ZM40.915 54.3767H38.8659V28.7403C38.8659 28.303 38.5201 27.9429 38.0816 27.9429H34.093V24.2217H35.8133C36.2433 24.2217 36.5975 23.8702 36.5975 23.4244V20.312C36.5975 19.8747 36.2518 19.5146 35.8133 19.5146H27.7433C27.3132 19.5146 26.959 19.8661 26.959 20.312V23.4244C26.959 23.8616 27.3048 24.2217 27.7433 24.2217H29.4635V27.9429H25.4749C25.0448 27.9429 24.6907 28.2944 24.6907 28.7403V38.3432H22.3548V29.4262C22.3548 27.7971 21.0562 26.4767 19.454 26.4767H18.8553V13.3498C18.8553 12.9125 18.5096 12.5524 18.0711 12.5524H14.0403C13.6102 12.5524 13.2561 12.904 13.2561 13.3498V26.4767H12.6573C11.0551 26.4767 9.75653 27.7971 9.75653 29.4262V54.3767H7.7074V10.6318H40.8981V54.3853L40.915 54.3767ZM19.0999 41.4899C19.5131 41.3699 19.9431 41.6099 20.0612 42.0386L22.8018 51.8302C22.9198 52.2504 22.6837 52.6876 22.2621 52.8077C22.1862 52.8248 22.1187 52.842 22.0513 52.842C21.714 52.842 21.402 52.6105 21.3008 52.2675L18.5602 42.4759C18.4421 42.0558 18.6782 41.6185 19.0999 41.4985V41.4899Z" fill="black"/>
</svg>
