<svg width="50" height="55" viewBox="0 0 50 55" fill="none" xmlns="http://www.w3.org/2000/svg">
<path d="M49.1528 53.2581H46.7905V3.2389C46.7905 1.45249 45.3731 0 43.6298 0H6.37015C4.62691 0 3.20951 1.45249 3.20951 3.2389V7.54629C3.20951 10.3233 4.24677 12.9945 6.10405 15.0091C7.96133 17.0237 10.5029 18.2424 13.2019 18.4094V21.4925C13.2019 22.65 14.1197 23.5905 15.2493 23.5905H16.4114V25.0096C16.4114 26.1672 17.3292 27.1077 18.4588 27.1077H24.2098C25.3394 27.1077 26.2572 26.1672 26.2572 25.0096V23.5905H27.4194C28.5489 23.5905 29.4667 22.65 29.4667 21.4925V18.4094C31.324 18.2981 33.1161 17.6915 34.6638 16.6452V45.2666C34.6638 45.7452 35.044 46.1348 35.511 46.1348C35.9781 46.1348 36.3582 45.7452 36.3582 45.2666V15.2317C38.3404 13.1893 39.4537 10.429 39.4591 7.54629V1.73631H43.619C44.4227 1.73631 45.0798 2.40969 45.0853 3.2389V48.6224H28.5489C30.694 46.5744 31.9051 43.7028 31.9051 40.7032V31.9437C31.9051 30.7973 30.9982 29.868 29.8794 29.868H12.7838C11.7302 29.868 10.8559 30.6972 10.769 31.7712H10.063C7.66808 31.7712 5.71847 33.7635 5.71847 36.2233V37.0803C5.71847 39.0003 6.32128 40.8702 7.43456 42.4117C8.55327 43.9533 10.1227 45.083 11.9203 45.6395C12.4851 46.7581 13.2291 47.7709 14.1251 48.6279H5.60986C4.27935 48.6279 3.20408 49.7298 3.20408 51.0933V53.2637H0.847181C0.380146 53.2637 0 53.6532 0 54.1318C0 54.6104 0.380146 55 0.847181 55H49.1474C49.6144 55 49.9946 54.6104 49.9946 54.1318C49.9946 53.6532 49.6144 53.2637 49.1474 53.2637L49.1528 53.2581ZM24.5683 25.0152C24.5683 25.2155 24.4108 25.3769 24.2153 25.3769H18.4642C18.2687 25.3769 18.1167 25.2155 18.1167 25.0152V23.5961H24.5683V25.0152ZM37.7756 7.54629C37.7756 9.97268 36.8361 12.2989 35.1635 14.013C33.4908 15.727 31.2208 16.6898 28.853 16.6953H18.1167C17.6496 16.6953 17.2695 17.0849 17.2695 17.5635C17.2695 18.0421 17.6496 18.4316 18.1167 18.4316H27.7832V21.498C27.7832 21.6984 27.6257 21.8542 27.4356 21.8542H15.2656C15.0701 21.8542 14.9126 21.6928 14.9126 21.4925V17.5579C14.9126 17.3075 14.8094 17.0682 14.6247 16.9012C14.4401 16.7343 14.1957 16.6619 13.9513 16.6953C13.9133 16.6953 13.8753 16.6898 13.8373 16.6898C11.4695 16.6898 9.20495 15.7214 7.53231 14.0074C5.85967 12.2933 4.92017 9.96712 4.91474 7.54073V3.23333C4.91474 2.40413 5.57185 1.73075 6.38101 1.73075H37.7865V7.53516L37.7756 7.54629ZM13.2834 44.532C13.1748 44.2927 12.9684 44.1202 12.7186 44.0534C9.59596 43.2465 7.40741 40.3693 7.41284 37.0748V36.2177C7.41284 34.7207 8.59672 33.5075 10.063 33.502H10.7635V39.6459C10.7635 40.1245 11.1437 40.514 11.6107 40.514C12.0778 40.514 12.4579 40.1245 12.4579 39.6459V31.9382C12.4579 31.749 12.6045 31.5987 12.7892 31.5987H29.8849C30.0695 31.5987 30.2161 31.749 30.2161 31.9382V40.6977C30.2161 42.306 29.798 43.892 29.0051 45.2833C28.2122 46.6746 27.0772 47.8266 25.7033 48.6168H16.9654C15.3524 47.6763 14.0654 46.2461 13.2779 44.5265L13.2834 44.532ZM4.90388 51.0877C4.90388 50.687 5.21886 50.3643 5.60986 50.3643H45.0907V53.2637H4.90388V51.0933V51.0877Z" fill="black"/>
</svg>
