<svg width="124" height="62" viewBox="0 0 124 62" fill="none" xmlns="http://www.w3.org/2000/svg">
<path d="M22.016 18.0503H2.26457L0 17.0009V25.5731L4.4739 19.7294H9.67689L9.86468 19.9282V41.2152L9.67689 41.414H5.57857V43.1041H18.5695V41.414H14.6147L14.4159 41.2152V19.9282L14.6147 19.7294H19.6741L24.2806 25.5731V17.0009L22.016 18.0503Z" fill="white"/>
<path d="M92.8363 27.6829C88.2077 28.3457 87.7769 39.3924 91.7868 41.6459C93.3555 42.5297 94.6148 41.9332 95.6642 40.6296C97.8073 37.9674 97.8515 32.4441 96.0398 29.6051C95.377 28.5556 94.1619 27.4841 92.8363 27.6829ZM101.917 34.8522C101.917 39.6907 97.9951 43.6012 93.1566 43.6012C88.3182 43.6012 84.3966 39.6796 84.3966 34.8522C84.3966 30.0248 88.3182 26.1033 93.1566 26.1033C97.9951 26.1033 101.917 30.0248 101.917 34.8522Z" fill="white"/>
<path d="M37.1389 34.9185C35.4488 35.5924 32.3999 36.4872 32.4551 38.7517C32.5104 41.2041 35.8464 41.1157 37.1389 39.6576V34.9185ZM28.1801 32.3226C29.4504 29.1632 32.9964 26.4678 36.4319 26.2248C43.546 25.7167 40.6628 35.0953 41.3587 39.3372C41.9 40.8175 43.557 40.6628 44.5402 39.7238C44.6396 42.8942 40.475 44.5402 38.1773 42.5187C37.7465 42.3861 37.1941 40.8727 36.9511 40.8837C36.4651 40.8948 36.0453 41.6239 35.6476 41.9332C34.4877 42.828 33.2615 43.4687 31.7481 43.3692C30.2789 43.2698 28.7103 42.1873 28.4673 40.6739C27.705 35.8575 34.1673 35.2389 37.1168 33.4162C37.4703 30.1906 36.3877 27.7272 32.7202 28.5667V32.3336H28.169L28.1801 32.3226Z" fill="white"/>
<path d="M74.8081 14.67V41.414H77.0174V43.1042H68.1911V41.414H70.5219V19.4091L67.1527 17.1997L74.8081 14.67Z" fill="white"/>
<path d="M116.112 41.414H119.492V43.1041H109.616V41.414H111.958V30.9638L109.097 28.5667L116.112 25.9707V29.4062C116.112 29.4835 116.299 29.583 116.41 29.583C116.874 29.5609 118.144 27.937 118.641 27.5172C118.862 27.3294 119.138 27.1085 119.37 26.9428C123.612 24.1701 126.065 29.7929 121.701 31.6156L118.774 29.4615L116.112 31.3504V41.414Z" fill="white"/>
<path d="M58.1828 41.414H60.3259C60.7125 41.8227 60.4474 42.5628 60.5247 43.1041H51.6874V41.414H54.0293V30.9638L51.1682 28.5667L58.1828 25.9707V41.425V41.414Z" fill="white"/>
<path d="M58.5031 19.8729C58.5031 21.3311 57.3212 22.5131 55.863 22.5131C54.4048 22.5131 53.2228 21.3311 53.2228 19.8729C53.2228 18.4148 54.4048 17.2328 55.863 17.2328C57.3212 17.2328 58.5031 18.4148 58.5031 19.8729Z" fill="white"/>
<path d="M68.7545 0V5.05938H73.6924V4.15355H69.7929V2.9826H73.2947V2.07677H69.7929V0.905827H73.6924V0H68.7545Z" fill="white"/>
<path d="M63.6841 0V2.07677H60.4363V0H59.3979V5.05938H60.4363V2.9826H63.6841V5.05938H64.7335V0H63.6841Z" fill="white"/>
<path d="M50.3065 0V0.905827H52.5159V5.05938H53.5542V0.905827H55.7636V0H50.3065Z" fill="white"/>
<path d="M42.386 56.2166V61.2759H47.3239V60.3701H43.4244V59.1992H46.9373V58.2933H43.4244V57.1224H47.3239V56.2166H42.386Z" fill="white"/>
<path d="M65.8934 59.1991L64.855 57.2549L63.9492 59.1991H65.8934ZM67.9702 61.2759C66.8655 61.4637 66.7219 61.0439 66.3905 60.127L63.5073 60.1049C63.0323 60.9666 63.0655 61.4858 61.8614 61.2759L64.3248 56.2717L65.562 56.338L67.9591 61.2759H67.9702Z" fill="white"/>
<path d="M73.1732 60.2375L75.272 56.2386L76.4209 56.2166L73.8912 61.1544C72.897 61.4969 72.7865 61.3974 72.3336 60.6352C71.5051 59.2544 70.9086 57.6637 70.1906 56.2166L71.2952 56.3491L73.1732 60.2486V60.2375Z" fill="white"/>
<path d="M87.4565 60.2375L89.5554 56.2386L90.7043 56.2166L88.1746 61.1544C87.1804 61.4969 87.0699 61.3974 86.617 60.6352C85.7885 59.2544 85.192 57.6637 84.4739 56.2166L85.5786 56.3491L87.4565 60.2486V60.2375Z" fill="white"/>
<path d="M33.2947 56.2166V57.1224H35.504V61.2759H36.5424V57.1224H38.7517V56.2166H33.2947Z" fill="white"/>
<path d="M50.9583 56.2166V61.2759H55.5095V60.3701H51.9967V56.2166H50.9583Z" fill="white"/>
<path d="M80.9611 56.2166H79.9227V61.2759H80.9611V56.2166Z" fill="white"/>
</svg>
