<svg width="11" height="10" viewBox="0 0 11 10" fill="none" xmlns="http://www.w3.org/2000/svg">
<path d="M8.40002 9.3999C8.40002 8.33904 7.9786 7.32162 7.22845 6.57147C6.47831 5.82133 5.46089 5.3999 4.40002 5.3999M4.40002 5.3999C3.33916 5.3999 2.32174 5.82133 1.5716 6.57147C0.821452 7.32162 0.400024 8.33904 0.400024 9.3999M4.40002 5.3999C5.78074 5.3999 6.90002 4.28061 6.90002 2.8999C6.90002 1.51919 5.78074 0.399902 4.40002 0.399902C3.01931 0.399902 1.90002 1.51919 1.90002 2.8999C1.90002 4.28061 3.01931 5.3999 4.40002 5.3999ZM10.4 8.8999C10.4 7.2149 9.40002 5.6499 8.40002 4.8999C8.72873 4.65329 8.99158 4.32945 9.16531 3.95704C9.33903 3.58463 9.41828 3.17514 9.39603 2.7648C9.37379 2.35447 9.25073 1.95595 9.03776 1.6045C8.82479 1.25306 8.52847 0.959533 8.17502 0.749902" stroke="white" stroke-width="0.8" stroke-linecap="round" stroke-linejoin="round"/>
</svg>
