<svg width="17" height="17" viewBox="0 0 17 17" fill="none" xmlns="http://www.w3.org/2000/svg">
<path d="M9.8655 12.0544C10.0307 12.1303 10.2169 12.1476 10.3933 12.1036C10.5696 12.0595 10.7258 11.9567 10.8359 11.812L11.1199 11.44C11.2689 11.2413 11.4622 11.08 11.6844 10.9689C11.9065 10.8579 12.1515 10.8 12.3999 10.8H14.7999C15.2242 10.8 15.6312 10.9686 15.9313 11.2687C16.2313 11.5687 16.3999 11.9757 16.3999 12.4V14.8C16.3999 15.2244 16.2313 15.6313 15.9313 15.9314C15.6312 16.2315 15.2242 16.4 14.7999 16.4C10.9808 16.4 7.31809 14.8829 4.61756 12.1824C1.91704 9.48184 0.399902 5.81914 0.399902 2.00002C0.399902 1.57568 0.568473 1.16871 0.868531 0.868653C1.16859 0.568595 1.57556 0.400024 1.9999 0.400024H4.3999C4.82425 0.400024 5.23121 0.568595 5.53127 0.868653C5.83133 1.16871 5.9999 1.57568 5.9999 2.00002V4.40002C5.9999 4.64842 5.94207 4.8934 5.83099 5.11557C5.7199 5.33773 5.55862 5.53099 5.3599 5.68002L4.9855 5.96082C4.83863 6.07297 4.73512 6.23249 4.69253 6.4123C4.64995 6.59212 4.67093 6.78112 4.7519 6.94722C5.84525 9.16792 7.64344 10.9639 9.8655 12.0544Z" stroke="black" stroke-width="0.8" stroke-linecap="round" stroke-linejoin="round"/>
</svg>
