<svg width="54" height="55" viewBox="0 0 54 55" fill="none" xmlns="http://www.w3.org/2000/svg">
<path d="M49.2982 0H4.70179C2.10993 0 0 2.12312 0 4.73118V44.6919C0 47.3 2.10993 49.4231 4.70179 49.4231H6.18872L6.92926 54.2489C6.99391 54.6806 7.36417 55 7.79909 55H15.6334C16.0683 55 16.4386 54.6806 16.5033 54.2489L17.2438 49.4231H36.7444L37.485 54.2489C37.5496 54.6806 37.9199 55 38.3548 55H46.1892C46.6241 55 46.9943 54.6806 47.059 54.2489L47.7995 49.4231H49.2865C51.8783 49.4231 53.9882 47.3 53.9882 44.6919V4.73118C53.9941 2.12312 51.8901 0 49.2982 0ZM14.8811 53.2258H8.55725L7.9754 49.4172H15.463L14.8811 53.2258ZM45.4369 53.2258H39.113L38.5311 49.4172H46.0187L45.4369 53.2258ZM52.231 44.686C52.231 46.3183 50.9145 47.643 49.2923 47.643H4.70179C3.07967 47.643 1.76317 46.3183 1.76317 44.686V4.73118C1.76317 3.09892 3.08555 1.77419 4.70179 1.77419H49.2923C50.9145 1.77419 52.231 3.09892 52.231 4.73118V44.686ZM48.2462 11.3608H46.3537V10.1129C46.3537 8.77634 45.2723 7.68817 43.9441 7.68817H10.0501C8.72181 7.68817 7.6404 8.77634 7.6404 10.1129V39.3102C7.6404 40.6468 8.72181 41.7349 10.0501 41.7349H43.9441C45.2723 41.7349 46.3537 40.6468 46.3537 39.3102V38.0624H48.2462C48.734 38.0624 49.1278 37.6661 49.1278 37.1753V28.3398C49.1278 27.8489 48.7281 27.4527 48.2462 27.4527H46.3537V21.9823H48.2462C48.734 21.9823 49.1278 21.586 49.1278 21.0952V12.2538C49.1278 11.7629 48.734 11.3667 48.2462 11.3667V11.3608ZM47.3646 36.2823H43.5797V29.221H47.3646V36.2823ZM44.5906 27.4468H42.6981C42.2103 27.4468 41.8165 27.843 41.8165 28.3339V37.1694C41.8165 37.6602 42.2103 38.0564 42.6981 38.0564H44.5906V39.3043C44.5906 39.6651 44.3026 39.9548 43.9441 39.9548H10.0501C9.69156 39.9548 9.40357 39.6651 9.40357 39.3043V10.1129C9.40357 9.75215 9.69156 9.46237 10.0501 9.46237H43.9441C44.3026 9.46237 44.5906 9.75215 44.5906 10.1129V11.3608H42.6981C42.2103 11.3608 41.8165 11.757 41.8165 12.2478V21.0892C41.8165 21.5801 42.2103 21.9763 42.6981 21.9763H44.5906V27.4468ZM47.3646 20.2022H43.5797V13.1349H47.3646V20.2022ZM26.9941 15.7785C22.0984 15.7785 18.1195 19.7823 18.1195 24.7086C18.1195 29.6349 22.0984 33.6387 26.9941 33.6387C31.8899 33.6387 35.8687 29.6349 35.8687 24.7086C35.8687 19.7823 31.8899 15.7785 26.9941 15.7785ZM34.0468 23.8215H30.9319C30.591 22.2957 29.3979 21.0952 27.8816 20.7521V17.6177C31.0964 18.0199 33.653 20.5866 34.0527 23.8274L34.0468 23.8215ZM26.9941 26.9914C25.7423 26.9914 24.7255 25.9683 24.7255 24.7086C24.7255 23.4489 25.7423 22.4258 26.9941 22.4258C28.246 22.4258 29.2627 23.4489 29.2627 24.7086C29.2627 25.9683 28.246 26.9914 26.9941 26.9914ZM26.1125 17.6177V20.7521C24.5962 21.0952 23.4031 22.2957 23.0623 23.8215H19.9473C20.347 20.5866 22.8977 18.0199 26.1184 17.6118L26.1125 17.6177ZM19.9473 25.5957H23.0623C23.4031 27.1215 24.5962 28.322 26.1125 28.6651V31.7995C22.8977 31.3973 20.3411 28.8306 19.9414 25.5898L19.9473 25.5957ZM27.8757 31.8054V28.671C29.392 28.328 30.5851 27.1274 30.926 25.6016H34.0409C33.6413 28.8366 31.0906 31.4091 27.8698 31.8113L27.8757 31.8054Z" fill="black"/>
</svg>
