<svg width="64" height="46" viewBox="0 0 64 46" fill="none" xmlns="http://www.w3.org/2000/svg">
<path d="M63 0H1C0.446667 0 0 0.446667 0 1V35C0 35.5533 0.446667 36 1 36H28V37.1067C28 38.4667 27.0867 39.6533 25.7733 40.0067L10.74 44.0333C10.2067 44.1733 9.88667 44.7267 10.0333 45.26C10.1733 45.7933 10.7267 46.1133 11.26 45.9667L27.6667 41.5667C30.5067 40.8067 33.5 40.8067 36.34 41.5667L52.7467 45.96C53.28 46.1 53.8267 45.7867 53.9733 45.2533C54.1133 44.72 53.8 44.1733 53.2667 44.0267L38.2267 40C36.92 39.6467 36.0067 38.46 36 37.1V35.9933H63C63.5533 35.9933 64 35.5467 64 34.9933V1C64 0.446667 63.5467 0 63 0ZM29.56 39.16C29.8533 38.5133 30 37.8133 30 37.1067V36H34V37.1067C34 37.8133 34.1533 38.5133 34.44 39.16C32.82 38.9467 31.18 38.9467 29.5533 39.16H29.56ZM62 34H2V2H62V34Z" fill="black"/>
</svg>
